<svg xmlns="http://www.w3.org/2000/svg" width="294" height="126" viewBox="-250 -250 10500 4500">
  <line x1="0" y1="0" x2="10000" y2="0" stroke="black" stroke-width="32.5"/>
  <line x1="0" y1="250" x2="10000" y2="250" stroke="black" stroke-width="32.5"/>
  <line x1="0" y1="500" x2="10000" y2="500" stroke="black" stroke-width="32.5"/>
  <line x1="0" y1="750" x2="10000" y2="750" stroke="black" stroke-width="32.5"/>
  <line x1="0" y1="1000" x2="10000" y2="1000" stroke="black" stroke-width="32.5"/>
  <path d="M364 252C387 252 413 250 433 246C444 244 446 243 448 255C460 322 475 409 475 456C475 604 375 622 316 622C262 622 236 606 236 593C236 586 245 583 268 576C299 567 335 540 335 482C335 427 300 380 239 380C172 380 132 433 132 495C132 560 171 658 322 658C389 658 519 628 519 458C519 401 501 306 490 244C488 232 489 233 503 227C604 187 671 102 671 -11C671 -139 577 -252 430 -252C404 -252 404 -252 401 -270L376 -415C374 -427 376 -428 382 -434C490 -535 572 -662 572 -815C572 -902 548 -988 507 -1048C492 -1070 466 -1098 455 -1098C441 -1098 410 -1072 390 -1050C316 -968 292 -843 292 -739C292 -681 299 -616 306 -575C308 -563 309 -561 297 -551C153 -432 0 -289 0 -87C0 87 119 252 364 252ZM80 -20C80 -79 90 -158 173 -252C233 -319 279 -356 326 -394C336 -402 338 -401 340 -390L361 -262C364 -243 364 -244 346 -238C258 -208 201 -129 201 -44C201 46 248 110 316 133C324 136 336 139 343 139C351 139 355 134 355 128C355 121 347 118 340 115C298 97 268 54 268 8C268 -49 307 -92 368 -109C384 -113 386 -112 388 -101L438 197C440 208 439 208 424 211C408 214 388 216 368 216C193 216 80 119 80 -20ZM470 -943C503 -943 530 -916 530 -861C530 -750 435 -660 356 -591C349 -585 345 -586 343 -599C339 -625 337 -659 337 -691C337 -847 409 -943 470 -943ZM441 -117C522 -110 589 -42 589 46C589 109 551 160 495 188C483 194 481 194 479 182L430 -103C428 -115 429 -118 441 -117Z" fill="black" transform="translate(250, 750)"/>
  <path d="M8 -26C12 -26 31 -35 34 -37C35 -37 36 -38 37 -38C44 -38 50 -28 50 -20L50 79C50 90 45 99 39 102C33 104 12 113 12 113C5 115 0 123 0 129L0 200C0 206 3 209 8 209C9 209 11 208 12 208C12 208 26 202 35 199C36 198 37 198 38 198C45 198 50 209 50 214L50 337C50 343 56 348 63 348C73 348 80 343 80 337L80 198C80 185 85 178 90 176L151 151C152 151 154 150 155 150C163 150 168 162 168 168L168 293C168 299 174 304 181 304C192 304 198 299 198 293L198 151C198 143 202 131 209 128C216 125 237 117 237 117C244 114 249 106 249 100L249 29C249 24 246 21 242 21C240 21 239 21 237 22L211 32C205 32 198 26 198 14L198 -79C198 -86 203 -105 211 -108L237 -118C244 -121 249 -129 249 -135L249 -206C249 -211 246 -214 242 -214C240 -214 239 -214 237 -213C237 -213 217 -205 212 -204C205 -204 198 -209 198 -217L198 -339C198 -345 192 -350 184 -350C174 -350 168 -345 168 -339L168 -209C167 -199 164 -186 155 -180C143 -173 109 -159 92 -155C83 -155 80 -167 80 -175L80 -295C80 -301 73 -306 66 -306C56 -306 50 -301 50 -295L50 -160C50 -146 44 -136 38 -133C32 -130 12 -122 12 -122C5 -120 0 -112 0 -106L0 -35C0 -29 3 -26 8 -26ZM77 30C77 -1 78 -36 80 -44C82 -61 128 -82 153 -82C160 -82 166 -80 168 -76C170 -71 172 -46 172 -19C172 8 170 36 168 45C162 65 115 85 92 85C86 85 81 83 80 80C78 76 77 54 77 30Z" fill="black" transform="translate(1507.537688442211, 0)"/>
  <path d="M40 112L226 112L226 175C226 202 204 210 186 210C170 210 163 219 163 229C163 239 167 250 182 250L395 250C405 250 415 243 415 229C415 215 403 209 393 209C383 209 362 203 362 171L362 112L435 112C445 112 450 105 450 93C450 81 446 74 435 74L362 74L362 -140C362 -148 361 -157 350 -157C341 -157 336 -155 330 -148L235 -33C231 -28 226 -22 226 -10L226 74L91 74C171 6 331 -221 334 -232C334 -234 335 -235 335 -237C335 -245 328 -251 320 -251C311 -251 270 -249 252 -249C234 -249 189 -251 181 -251C172 -251 158 -248 158 -232C158 -108 60 31 30 73L24 81C24 82 23 83 23 84C21 88 20 92 20 95C20 105 28 112 40 112Z" fill="black" transform="translate(2386.934673366834, 250)"/>
  <path d="M40 112L226 112L226 175C226 202 204 210 186 210C170 210 163 219 163 229C163 239 167 250 182 250L395 250C405 250 415 243 415 229C415 215 403 209 393 209C383 209 362 203 362 171L362 112L435 112C445 112 450 105 450 93C450 81 446 74 435 74L362 74L362 -140C362 -148 361 -157 350 -157C341 -157 336 -155 330 -148L235 -33C231 -28 226 -22 226 -10L226 74L91 74C171 6 331 -221 334 -232C334 -234 335 -235 335 -237C335 -245 328 -251 320 -251C311 -251 270 -249 252 -249C234 -249 189 -251 181 -251C172 -251 158 -248 158 -232C158 -108 60 31 30 73L24 81C24 82 23 83 23 84C21 88 20 92 20 95C20 105 28 112 40 112Z" fill="black" transform="translate(2386.934673366834, 750)"/>
  <path d="M0 42C0 94 43 125 97 125C186 125 295 43 295 -42C295 -93 255 -125 198 -125C88 -125 0 -44 0 42Z" fill="black" transform="translate(3768.844221105527, 750)"/>
  <line x1="4048.844221105527" y1="-125" x2="4048.844221105527" y2="750" stroke="black" stroke-width="30"/>
  <path d="M97 125C262 125 295 -9 295 -42C295 -93 254 -125 196 -125C47 -125 0 -10 0 42C0 95 42 125 97 125ZM29 44C29 -5 174 -84 221 -84C240 -84 251 -75 258 -63C261 -57 264 -51 264 -44C264 -1 123 87 75 87C54 87 42 76 35 64C32 58 29 51 29 44Z" fill="black" transform="translate(4522.613065326633, 250)"/>
  <line x1="4537.613065326633" y1="250" x2="4537.613065326633" y2="1125" stroke="black" stroke-width="30"/>
  <path d="M0 42C0 94 43 125 97 125C186 125 295 43 295 -42C295 -93 255 -125 198 -125C88 -125 0 -44 0 42Z" fill="black" transform="translate(5728.6432160804015, 250)"/>
  <line x1="5743.6432160804015" y1="250" x2="5743.6432160804015" y2="1125" stroke="black" stroke-width="30"/>
  <line x1="6482.412060301507" y1="0" x2="6482.412060301507" y2="1000" stroke="black" stroke-width="40"/>
  <path d="M0 42C0 94 43 125 97 125C186 125 295 43 295 -42C295 -93 255 -125 198 -125C88 -125 0 -44 0 42Z" fill="black" transform="translate(6733.668341708542, 500)"/>
  <line x1="6748.668341708542" y1="500" x2="6748.668341708542" y2="1375" stroke="black" stroke-width="30"/>
  <path d="M0 42C0 94 43 125 97 125C186 125 295 43 295 -42C295 -93 255 -125 198 -125C88 -125 0 -44 0 42Z" fill="black" transform="translate(7487.437185929648, 625)"/>
  <line x1="7767.437185929648" y1="-250" x2="7767.437185929648" y2="625" stroke="black" stroke-width="30"/>
  <path d="M0 42C0 94 43 125 97 125C186 125 295 43 295 -42C295 -93 255 -125 198 -125C88 -125 0 -44 0 42Z" fill="black" transform="translate(8241.206030150754, 750)"/>
  <line x1="8521.206030150754" y1="-125" x2="8521.206030150754" y2="750" stroke="black" stroke-width="30"/>
  <path d="M0 42C0 94 43 125 97 125C186 125 295 43 295 -42C295 -93 255 -125 198 -125C88 -125 0 -44 0 42Z" fill="black" transform="translate(8994.97487437186, 750)"/>
  <line x1="9274.97487437186" y1="-125" x2="9274.97487437186" y2="750" stroke="black" stroke-width="30"/>
  <line x1="9748.743718592965" y1="0" x2="9748.743718592965" y2="1000" stroke="black" stroke-width="40"/>
  <path d="M4817.61,162.50 C5121.29,25.85 5424.97,25.85 5728.64,162.50 C5424.97,55.85 5121.29,55.85 4817.61,162.50Z" fill="black" stroke="none"/>
  <line x1="0" y1="2500" x2="10000" y2="2500" stroke="black" stroke-width="32.5"/>
  <line x1="0" y1="2750" x2="10000" y2="2750" stroke="black" stroke-width="32.5"/>
  <line x1="0" y1="3000" x2="10000" y2="3000" stroke="black" stroke-width="32.5"/>
  <line x1="0" y1="3250" x2="10000" y2="3250" stroke="black" stroke-width="32.5"/>
  <line x1="0" y1="3500" x2="10000" y2="3500" stroke="black" stroke-width="32.5"/>
  <path d="M364 252C387 252 413 250 433 246C444 244 446 243 448 255C460 322 475 409 475 456C475 604 375 622 316 622C262 622 236 606 236 593C236 586 245 583 268 576C299 567 335 540 335 482C335 427 300 380 239 380C172 380 132 433 132 495C132 560 171 658 322 658C389 658 519 628 519 458C519 401 501 306 490 244C488 232 489 233 503 227C604 187 671 102 671 -11C671 -139 577 -252 430 -252C404 -252 404 -252 401 -270L376 -415C374 -427 376 -428 382 -434C490 -535 572 -662 572 -815C572 -902 548 -988 507 -1048C492 -1070 466 -1098 455 -1098C441 -1098 410 -1072 390 -1050C316 -968 292 -843 292 -739C292 -681 299 -616 306 -575C308 -563 309 -561 297 -551C153 -432 0 -289 0 -87C0 87 119 252 364 252ZM80 -20C80 -79 90 -158 173 -252C233 -319 279 -356 326 -394C336 -402 338 -401 340 -390L361 -262C364 -243 364 -244 346 -238C258 -208 201 -129 201 -44C201 46 248 110 316 133C324 136 336 139 343 139C351 139 355 134 355 128C355 121 347 118 340 115C298 97 268 54 268 8C268 -49 307 -92 368 -109C384 -113 386 -112 388 -101L438 197C440 208 439 208 424 211C408 214 388 216 368 216C193 216 80 119 80 -20ZM470 -943C503 -943 530 -916 530 -861C530 -750 435 -660 356 -591C349 -585 345 -586 343 -599C339 -625 337 -659 337 -691C337 -847 409 -943 470 -943ZM441 -117C522 -110 589 -42 589 46C589 109 551 160 495 188C483 194 481 194 479 182L430 -103C428 -115 429 -118 441 -117Z" fill="black" transform="translate(250, 3250)"/>
  <path d="M8 -26C12 -26 31 -35 34 -37C35 -37 36 -38 37 -38C44 -38 50 -28 50 -20L50 79C50 90 45 99 39 102C33 104 12 113 12 113C5 115 0 123 0 129L0 200C0 206 3 209 8 209C9 209 11 208 12 208C12 208 26 202 35 199C36 198 37 198 38 198C45 198 50 209 50 214L50 337C50 343 56 348 63 348C73 348 80 343 80 337L80 198C80 185 85 178 90 176L151 151C152 151 154 150 155 150C163 150 168 162 168 168L168 293C168 299 174 304 181 304C192 304 198 299 198 293L198 151C198 143 202 131 209 128C216 125 237 117 237 117C244 114 249 106 249 100L249 29C249 24 246 21 242 21C240 21 239 21 237 22L211 32C205 32 198 26 198 14L198 -79C198 -86 203 -105 211 -108L237 -118C244 -121 249 -129 249 -135L249 -206C249 -211 246 -214 242 -214C240 -214 239 -214 237 -213C237 -213 217 -205 212 -204C205 -204 198 -209 198 -217L198 -339C198 -345 192 -350 184 -350C174 -350 168 -345 168 -339L168 -209C167 -199 164 -186 155 -180C143 -173 109 -159 92 -155C83 -155 80 -167 80 -175L80 -295C80 -301 73 -306 66 -306C56 -306 50 -301 50 -295L50 -160C50 -146 44 -136 38 -133C32 -130 12 -122 12 -122C5 -120 0 -112 0 -106L0 -35C0 -29 3 -26 8 -26ZM77 30C77 -1 78 -36 80 -44C82 -61 128 -82 153 -82C160 -82 166 -80 168 -76C170 -71 172 -46 172 -19C172 8 170 36 168 45C162 65 115 85 92 85C86 85 81 83 80 80C78 76 77 54 77 30Z" fill="black" transform="translate(2033.8983050847457, 2500)"/>
  <path d="M0 42C0 94 43 125 97 125C186 125 295 43 295 -42C295 -93 255 -125 198 -125C88 -125 0 -44 0 42Z" fill="black" transform="translate(3220.338983050847, 3250)"/>
  <line x1="3500.338983050847" y1="2375" x2="3500.338983050847" y2="3250" stroke="black" stroke-width="30"/>
  <path d="M0 42C0 94 43 125 97 125C186 125 295 43 295 -42C295 -93 255 -125 198 -125C88 -125 0 -44 0 42Z" fill="black" transform="translate(4237.28813559322, 3125)"/>
  <line x1="4517.28813559322" y1="2250" x2="4517.28813559322" y2="3125" stroke="black" stroke-width="30"/>
  <path d="M0 42C0 94 43 125 97 125C186 125 295 43 295 -42C295 -93 255 -125 198 -125C88 -125 0 -44 0 42Z" fill="black" transform="translate(5254.237288135593, 3000)"/>
  <line x1="5269.237288135593" y1="3000" x2="5269.237288135593" y2="3875" stroke="black" stroke-width="30"/>
  <path d="M0 42C0 94 43 125 97 125C186 125 295 43 295 -42C295 -93 255 -125 198 -125C88 -125 0 -44 0 42Z" fill="black" transform="translate(6271.186440677966, 2875)"/>
  <line x1="6286.186440677966" y1="2875" x2="6286.186440677966" y2="3750" stroke="black" stroke-width="30"/>
  <line x1="7288.135593220339" y1="2500" x2="7288.135593220339" y2="3500" stroke="black" stroke-width="40"/>
  <path d="M97 125C262 125 295 -9 295 -42C295 -93 254 -125 196 -125C47 -125 0 -10 0 42C0 95 42 125 97 125ZM29 44C29 -5 174 -84 221 -84C240 -84 251 -75 258 -63C261 -57 264 -51 264 -44C264 -1 123 87 75 87C54 87 42 76 35 64C32 58 29 51 29 44Z" fill="black" transform="translate(7627.118644067797, 2875)"/>
  <line x1="7642.118644067797" y1="2875" x2="7642.118644067797" y2="3750" stroke="black" stroke-width="30"/>
  <path d="M97 125C262 125 295 -9 295 -42C295 -93 254 -125 196 -125C47 -125 0 -10 0 42C0 95 42 125 97 125ZM29 44C29 -5 174 -84 221 -84C240 -84 251 -75 258 -63C261 -57 264 -51 264 -44C264 -1 123 87 75 87C54 87 42 76 35 64C32 58 29 51 29 44Z" fill="black" transform="translate(8644.06779661017, 2750)"/>
  <line x1="8659.06779661017" y1="2750" x2="8659.06779661017" y2="3625" stroke="black" stroke-width="30"/>
  <line x1="9661.016949152543" y1="2500" x2="9661.016949152543" y2="3500" stroke="black" stroke-width="40"/>
  <line x1="9843.516949152543" y1="2500" x2="9843.516949152543" y2="3500" stroke="black" stroke-width="125"/>
  <path d="M6566.19,2787.50 C6919.83,2628.36 7273.47,2628.36 7627.12,2787.50 C7273.47,2658.36 6919.83,2658.36 6566.19,2787.50Z" fill="black" stroke="none"/>
</svg>
