<svg xmlns="http://www.w3.org/2000/svg" viewBox="0 0 240 265" width="240" height="265">
  <style>
    .note-text { font-family: Arial, sans-serif; font-size: 11px; font-weight: bold; text-anchor: middle; dominant-baseline: middle; }
    .title-text { font-family: Arial, sans-serif; font-size: 14px; font-weight: bold; text-anchor: middle; }
    .fret-text { font-family: Arial, sans-serif; font-size: 10px; text-anchor: middle; }
    .string-text { font-family: Arial, sans-serif; font-size: 11px; font-weight: bold; text-anchor: middle; }
  </style>
  <text x="120.0" y="18.0" class="title-text">C Hungarian Minor</text>
  <circle cx="120.0" cy="145.0" r="80" fill="none" stroke="#cccccc" stroke-width="1"/>
  <g class="interval-lines">
  <line x1="120.0" y1="65.0" x2="189.3" y2="105.0" stroke="#4a90d9" stroke-width="2" stroke-opacity="0.5"/>
  <line x1="189.3" y1="105.0" x2="200.0" y2="145.0" stroke="#4a90d9" stroke-width="2" stroke-opacity="0.5"/>
  <line x1="200.0" y1="145.0" x2="120.0" y2="225.0" stroke="#4a90d9" stroke-width="2" stroke-opacity="0.5"/>
  <line x1="120.0" y1="225.0" x2="80.0" y2="214.3" stroke="#4a90d9" stroke-width="2" stroke-opacity="0.5"/>
  <line x1="80.0" y1="214.3" x2="50.7" y2="185.0" stroke="#4a90d9" stroke-width="2" stroke-opacity="0.5"/>
  <line x1="50.7" y1="185.0" x2="80.0" y2="75.7" stroke="#4a90d9" stroke-width="2" stroke-opacity="0.5"/>
  <line x1="80.0" y1="75.7" x2="120.0" y2="65.0" stroke="#4a90d9" stroke-width="2" stroke-opacity="0.5"/>
  </g>
  <circle cx="120.0" cy="65.0" r="14" fill="#2d5a87" stroke="#333333" stroke-width="1.5"/>
  <text x="120.0" y="65.0" class="note-text" fill="#ffffff">C</text>
  <circle cx="160.0" cy="75.7" r="14" fill="#ffffff" stroke="#333333" stroke-width="1.5"/>
  <text x="160.0" y="75.7" class="note-text" fill="#333333">C#</text>
  <circle cx="189.3" cy="105.0" r="14" fill="#4a90d9" stroke="#333333" stroke-width="1.5"/>
  <text x="189.3" y="105.0" class="note-text" fill="#ffffff">D</text>
  <circle cx="200.0" cy="145.0" r="14" fill="#4a90d9" stroke="#333333" stroke-width="1.5"/>
  <text x="200.0" y="145.0" class="note-text" fill="#ffffff">Eb</text>
  <circle cx="189.3" cy="185.0" r="14" fill="#ffffff" stroke="#333333" stroke-width="1.5"/>
  <text x="189.3" y="185.0" class="note-text" fill="#333333">E</text>
  <circle cx="160.0" cy="214.3" r="14" fill="#ffffff" stroke="#333333" stroke-width="1.5"/>
  <text x="160.0" y="214.3" class="note-text" fill="#333333">F</text>
  <circle cx="120.0" cy="225.0" r="14" fill="#4a90d9" stroke="#333333" stroke-width="1.5"/>
  <text x="120.0" y="225.0" class="note-text" fill="#ffffff">F#</text>
  <circle cx="80.0" cy="214.3" r="14" fill="#4a90d9" stroke="#333333" stroke-width="1.5"/>
  <text x="80.0" y="214.3" class="note-text" fill="#ffffff">G</text>
  <circle cx="50.7" cy="185.0" r="14" fill="#4a90d9" stroke="#333333" stroke-width="1.5"/>
  <text x="50.7" y="185.0" class="note-text" fill="#ffffff">Ab</text>
  <circle cx="40.0" cy="145.0" r="14" fill="#ffffff" stroke="#333333" stroke-width="1.5"/>
  <text x="40.0" y="145.0" class="note-text" fill="#333333">A</text>
  <circle cx="50.7" cy="105.0" r="14" fill="#ffffff" stroke="#333333" stroke-width="1.5"/>
  <text x="50.7" y="105.0" class="note-text" fill="#333333">Bb</text>
  <circle cx="80.0" cy="75.7" r="14" fill="#4a90d9" stroke="#333333" stroke-width="1.5"/>
  <text x="80.0" y="75.7" class="note-text" fill="#ffffff">B</text>
</svg>